<svg xmlns="http://www.w3.org/2000/svg" xmlns:xlink="http://www.w3.org/1999/xlink" width="500" zoomAndPan="magnify" viewBox="0 0 375 374.999991" height="500" preserveAspectRatio="xMidYMid meet" version="1.0"><defs><g/><clipPath id="b009b4906b"><path d="M 94 72 L 311 72 L 311 290 L 94 290 Z M 94 72 " clip-rule="nonzero"/></clipPath><clipPath id="cc3c4aaf5e"><path d="M 248.125 34.960938 L 347.730469 230.839844 L 157.199219 327.722656 L 57.59375 131.84375 Z M 248.125 34.960938 " clip-rule="nonzero"/></clipPath><clipPath id="397e0e357a"><path d="M 248.125 34.960938 L 347.730469 230.839844 L 157.199219 327.722656 L 57.59375 131.84375 Z M 248.125 34.960938 " clip-rule="nonzero"/></clipPath><clipPath id="b95062ce89"><path d="M 282.898438 111.125 C 242.933594 65.421875 174.421875 59.773438 130.171875 98.527344 C 120.613281 106.898438 112.859375 116.855469 106.9375 128.023438 L 107.21875 128.171875 L 106.9375 128.023438 C 96.789062 147.160156 92.792969 168.894531 95.371094 190.875 C 98.007812 213.347656 107.378906 234.355469 122.476562 251.621094 C 162.40625 297.277344 230.847656 302.921875 275.054688 264.207031 C 319.304688 225.453125 322.863281 156.824219 282.898438 111.125 Z M 118.660156 231.109375 C 120.351562 233.039062 121.828125 234.554688 122.941406 235.628906 C 130.351562 242.800781 140.59375 243.359375 151.4375 243.941406 C 163.960938 244.621094 178.15625 245.390625 190.367188 256.761719 C 200.707031 266.394531 210.859375 274.824219 222.335938 278.660156 C 210.699219 275.1875 200.460938 267.285156 190.386719 258.511719 C 178.238281 247.929688 164.355469 246.710938 152.105469 245.636719 C 141.113281 244.667969 130.730469 243.757812 123.226562 236.371094 C 116.535156 229.785156 110.242188 221.238281 105.433594 211.226562 C 109.773438 219.988281 114.777344 226.667969 118.660156 231.109375 Z M 113.917969 224.246094 C 115.433594 226.285156 116.902344 228.082031 118.242188 229.613281 C 120.125 231.769531 121.765625 233.421875 122.96875 234.5625 C 130.199219 241.425781 140.25 241.628906 150.890625 241.84375 C 163.738281 242.105469 178.300781 242.398438 190.640625 254.667969 C 200.777344 264.742188 210.179688 273.476562 221.386719 277.835938 C 210.410156 273.871094 200.625 265.71875 190.664062 256.4375 C 178.335938 244.957031 164.054688 244.183594 151.457031 243.503906 C 140.699219 242.917969 130.539062 242.371094 123.246094 235.3125 C 122.007812 234.113281 118.246094 230.300781 113.917969 224.246094 Z M 190.105469 260.582031 C 178.183594 250.898438 164.726562 249.265625 152.855469 247.824219 C 141.589844 246.460938 130.949219 245.167969 123.210938 237.429688 C 117.183594 231.402344 111.496094 223.769531 106.910156 214.9375 C 111.023438 222.644531 115.535156 228.5625 119.042969 232.574219 C 120.558594 234.304688 121.886719 235.683594 122.910156 236.691406 C 130.527344 244.191406 140.992188 245.113281 152.066406 246.085938 C 164.246094 247.15625 178.050781 248.367188 190.089844 258.847656 C 200.4375 267.863281 210.960938 275.964844 222.980469 279.339844 C 210.777344 276.335938 200.160156 268.746094 190.105469 260.578125 Z M 223.375 279.933594 C 210.683594 277.371094 199.746094 270.152344 189.824219 262.652344 C 178.179688 253.855469 165.75 251.941406 153.726562 250.089844 C 142.144531 248.304688 131.199219 246.617188 123.1875 238.488281 C 117.175781 232.386719 111.507812 224.699219 106.925781 215.820312 C 111.175781 223.84375 115.839844 229.960938 119.394531 234.023438 C 120.742188 235.566406 121.9375 236.820312 122.882812 237.761719 C 130.738281 245.617188 141.453125 246.917969 152.800781 248.292969 C 165.1875 249.792969 177.996094 251.347656 189.8125 260.945312 C 200.0625 269.273438 210.890625 276.996094 223.378906 279.933594 Z M 119.519531 235.238281 C 120.601562 236.476562 121.710938 237.675781 122.84375 238.824219 C 130.972656 247.066406 141.992188 248.769531 153.65625 250.5625 C 165.617188 252.410156 177.992188 254.3125 189.53125 263.039062 C 198.8125 270.050781 209.855469 277.410156 222.402344 280.242188 C 210.46875 277.976562 199.6875 271.839844 189.535156 264.726562 C 178.246094 256.8125 166.304688 254.589844 154.757812 252.441406 C 142.792969 250.214844 131.492188 248.109375 123.167969 239.546875 C 116.578125 232.777344 110.382812 224.121094 105.601562 214.074219 C 109.363281 221.816406 114.097656 229.046875 119.519531 235.246094 Z M 119.816406 236.636719 C 120.792969 237.753906 121.792969 238.839844 122.816406 239.890625 C 131.25 248.5625 142.628906 250.683594 154.671875 252.925781 C 166.167969 255.0625 178.050781 257.277344 189.257812 265.128906 C 199.015625 271.964844 212.121094 280.007812 227.003906 281.519531 C 227.679688 281.585938 228.359375 281.625 229.035156 281.667969 C 214.359375 281.160156 201.378906 274.640625 189.261719 266.796875 C 178.394531 259.757812 167.007812 257.289062 155.996094 254.898438 C 143.578125 252.203125 131.847656 249.65625 123.152344 240.605469 C 116.71875 233.902344 110.664062 225.40625 105.917969 215.582031 C 109.699219 223.273438 114.417969 230.460938 119.820312 236.632812 Z M 121.03125 243.402344 C 121.570312 244.015625 122.113281 244.617188 122.660156 245.21875 C 133.902344 257.4375 148.800781 262.167969 164.574219 267.175781 C 172.234375 269.609375 180.160156 272.121094 187.890625 275.59375 C 203.5 282.597656 218.300781 285.277344 232.488281 283.613281 C 218.335938 285.625 203.519531 283.464844 187.832031 277.15625 C 181.550781 274.628906 175.148438 272.515625 168.953125 270.46875 C 151.652344 264.753906 135.3125 259.355469 123.050781 245.902344 C 120.257812 242.839844 117.597656 239.492188 115.109375 235.925781 C 116.972656 238.519531 118.945312 241.019531 121.027344 243.40625 Z M 114.597656 234.183594 C 116.535156 236.914062 118.597656 239.535156 120.78125 242.03125 C 121.40625 242.75 122.046875 243.460938 122.691406 244.15625 C 133.097656 255.355469 146.902344 259.464844 161.519531 263.820312 C 170.289062 266.429688 179.355469 269.128906 188.164062 273.503906 C 201.378906 280.0625 213.835938 283.394531 225.839844 283.496094 C 213.761719 283.769531 201.230469 280.964844 188.117188 275.085938 C 180.355469 271.601562 172.417969 269.082031 164.742188 266.644531 C 149.042969 261.660156 134.214844 256.953125 123.074219 244.84375 C 120.078125 241.589844 117.238281 238.019531 114.597656 234.1875 Z M 119.976562 237.894531 C 120.890625 238.9375 121.828125 239.960938 122.78125 240.957031 C 131.585938 250.121094 143.390625 252.683594 155.886719 255.398438 C 166.851562 257.777344 178.191406 260.238281 188.984375 267.222656 C 203.574219 276.667969 215.441406 281.234375 227.449219 282.015625 C 213.054688 281.507812 200.328125 275.632812 188.976562 268.867188 C 178.636719 262.707031 167.886719 260.058594 157.492188 257.5 C 144.515625 254.304688 132.261719 251.28125 123.132812 241.667969 C 118.828125 237.132812 114.699219 231.789062 111.015625 225.800781 C 113.707031 230.097656 116.707031 234.152344 119.976562 237.894531 Z M 120.253906 239.28125 C 121.070312 240.210938 121.902344 241.128906 122.753906 242.023438 C 131.988281 251.75 144.3125 254.789062 157.363281 258.003906 C 167.722656 260.554688 178.433594 263.195312 188.707031 269.316406 C 202.882812 277.761719 215.105469 281.949219 227.074219 282.472656 C 212.394531 282.285156 199.53125 276.851562 188.691406 270.9375 C 179.007812 265.660156 169.007812 262.921875 159.335938 260.273438 C 145.671875 256.535156 132.765625 253.007812 123.113281 242.722656 C 119.433594 238.8125 115.984375 234.417969 112.859375 229.628906 C 115.136719 233.019531 117.601562 236.25 120.253906 239.28125 Z M 120.519531 240.65625 C 121.238281 241.480469 121.976562 242.289062 122.722656 243.085938 C 132.476562 253.476562 145.453125 257.027344 159.195312 260.789062 C 168.839844 263.429688 178.808594 266.15625 188.4375 271.40625 C 198.488281 276.890625 210.265625 281.960938 223.605469 282.882812 C 212.371094 282.410156 200.71875 279.121094 188.40625 273.011719 C 179.558594 268.617188 170.46875 265.914062 161.675781 263.289062 C 147.132812 258.960938 133.402344 254.871094 123.097656 243.78125 C 119.878906 240.320312 116.847656 236.484375 114.046875 232.355469 C 116.070312 235.25 118.226562 238.03125 120.527344 240.65625 Z M 121.28125 244.769531 C 121.726562 245.277344 122.175781 245.785156 122.632812 246.28125 C 134.992188 259.847656 151.402344 265.269531 168.773438 271.007812 C 174.960938 273.050781 181.355469 275.164062 187.621094 277.683594 C 201.011719 283.070312 213.777344 285.441406 226.039062 284.804688 C 213.695312 285.816406 200.84375 283.96875 187.550781 279.222656 C 183.417969 277.746094 179.214844 276.351562 175.148438 275.003906 C 155.484375 268.476562 136.914062 262.3125 123.039062 246.953125 C 119.265625 242.777344 115.882812 238.332031 112.875 233.695312 C 115.4375 237.582031 118.246094 241.292969 121.28125 244.769531 Z M 121.523438 246.140625 C 121.878906 246.546875 122.242188 246.953125 122.601562 247.351562 C 136.582031 262.824219 155.226562 269.011719 174.964844 275.5625 C 179.027344 276.910156 183.226562 278.308594 187.351562 279.777344 C 200.757812 284.5625 213.710938 286.421875 226.152344 285.394531 C 213.625 286.800781 200.578125 285.457031 187.261719 281.296875 L 185.265625 280.675781 C 162.753906 273.648438 139.472656 266.386719 123.019531 248.015625 C 122.738281 247.703125 122.464844 247.394531 122.191406 247.078125 C 119.269531 243.742188 116.597656 240.242188 114.148438 236.621094 C 116.433594 239.9375 118.890625 243.128906 121.527344 246.140625 Z M 121.722656 247.457031 C 122.003906 247.777344 122.285156 248.101562 122.570312 248.417969 C 139.132812 266.914062 162.492188 274.203125 185.085938 281.25 L 187.082031 281.871094 C 200.480469 286.058594 213.601562 287.410156 226.207031 286 C 213.511719 287.792969 200.289062 286.953125 186.96875 283.371094 C 165.191406 277.511719 140.566406 268.855469 122.996094 249.074219 C 122.808594 248.867188 122.628906 248.660156 122.445312 248.449219 C 120.464844 246.183594 118.597656 243.84375 116.832031 241.449219 C 118.386719 243.5 120.015625 245.507812 121.71875 247.457031 Z M 122.960938 251.191406 C 121 248.945312 119.140625 246.632812 117.382812 244.261719 C 118.953125 246.328125 120.589844 248.351562 122.3125 250.320312 L 122.515625 250.546875 C 137.902344 267.972656 159.445312 279.917969 186.550781 286.054688 C 199.328125 288.949219 211.972656 289.472656 224.125 287.738281 C 188.140625 293.914062 149.3125 281.316406 122.96875 251.195312 Z M 186.683594 285.441406 C 159.710938 279.335938 138.277344 267.457031 122.980469 250.132812 L 122.789062 249.914062 C 120.875 247.722656 119.0625 245.46875 117.339844 243.160156 C 118.820312 245.097656 120.359375 246.996094 121.976562 248.839844 C 122.164062 249.058594 122.351562 249.269531 122.542969 249.484375 C 140.21875 269.386719 164.949219 278.082031 186.8125 283.964844 C 202.355469 288.144531 217.765625 288.617188 232.367188 285.546875 C 217.789062 288.960938 202.339844 288.992188 186.683594 285.441406 Z M 273.640625 264.566406 C 273.46875 264.714844 273.292969 264.859375 273.117188 265.003906 C 272.921875 265.164062 272.726562 265.324219 272.535156 265.484375 C 272.371094 265.617188 272.210938 265.75 272.046875 265.878906 C 271.875 266.007812 271.707031 266.148438 271.542969 266.277344 C 271.402344 266.386719 271.261719 266.492188 271.125 266.597656 C 270.933594 266.742188 270.742188 266.882812 270.550781 267.03125 C 270.523438 267.050781 270.492188 267.074219 270.464844 267.09375 C 270.074219 267.386719 269.683594 267.667969 269.292969 267.949219 C 269.273438 267.960938 269.253906 267.976562 269.238281 267.988281 C 268.644531 268.40625 268.054688 268.8125 267.464844 269.210938 C 267.355469 269.28125 267.246094 269.359375 267.136719 269.433594 C 266.820312 269.640625 266.496094 269.867188 266.179688 270.074219 C 266.09375 270.125 266.011719 270.175781 265.929688 270.230469 C 265.078125 270.773438 264.234375 271.285156 263.394531 271.78125 C 263.101562 271.949219 262.816406 272.121094 262.527344 272.285156 C 261.910156 272.640625 261.296875 272.976562 260.691406 273.308594 C 260.21875 273.5625 259.753906 273.804688 259.285156 274.046875 C 259.226562 274.078125 259.167969 274.105469 259.109375 274.136719 C 258.972656 274.207031 258.839844 274.269531 258.703125 274.339844 C 226.839844 290.042969 207.890625 271.210938 190.945312 254.367188 C 178.484375 241.972656 163.828125 241.679688 150.898438 241.414062 C 140.34375 241.203125 130.375 241 123.265625 234.253906 C 119.765625 230.929688 96.082031 207.0625 96.464844 170.492188 C 96.550781 165.824219 97 161.03125 97.882812 156.140625 C 97.917969 155.945312 97.953125 155.757812 97.988281 155.558594 C 98.140625 154.75 98.320312 153.925781 98.492188 153.109375 C 98.664062 152.335938 98.832031 151.5625 99.023438 150.789062 C 99.101562 150.460938 99.1875 150.132812 99.269531 149.808594 C 99.566406 148.640625 99.878906 147.46875 100.21875 146.300781 C 100.21875 146.300781 100.21875 146.300781 100.222656 146.296875 C 100.601562 145.007812 101.015625 143.722656 101.453125 142.433594 C 101.503906 142.285156 101.550781 142.136719 101.605469 141.992188 C 101.964844 140.949219 102.347656 139.910156 102.746094 138.871094 C 102.921875 138.414062 103.101562 137.957031 103.285156 137.5 C 103.46875 137.03125 103.667969 136.566406 103.867188 136.097656 C 103.949219 135.902344 104.03125 135.699219 104.113281 135.503906 C 104.148438 135.417969 104.1875 135.328125 104.222656 135.242188 C 104.488281 134.625 104.753906 134.007812 105.03125 133.398438 C 105.066406 133.324219 105.097656 133.246094 105.128906 133.167969 C 105.148438 133.125 105.171875 133.082031 105.191406 133.039062 C 105.277344 132.859375 105.363281 132.675781 105.449219 132.496094 C 105.660156 132.039062 105.882812 131.582031 106.105469 131.125 C 106.152344 131.027344 106.203125 130.921875 106.25 130.824219 C 106.347656 130.628906 106.441406 130.4375 106.539062 130.242188 C 106.613281 130.09375 106.6875 129.945312 106.761719 129.796875 C 107.011719 129.308594 107.25 128.8125 107.503906 128.324219 C 113.378906 117.246094 121.257812 107.46875 130.734375 99.167969 C 174.632812 60.726562 242.601562 66.34375 282.257812 111.6875 C 321.910156 157.03125 318.53125 225.28125 274.636719 263.722656 C 274.308594 264.011719 273.972656 264.285156 273.644531 264.570312 Z M 273.640625 264.566406 " clip-rule="nonzero"/></clipPath></defs><g clip-path="url(#b009b4906b)"><g clip-path="url(#cc3c4aaf5e)"><g clip-path="url(#397e0e357a)"><g clip-path="url(#b95062ce89)"><path fill="#000000" d="M 275.597656 -33.183594 L -5.445312 109.726562 L 140.058594 395.878906 L 421.105469 252.96875 Z M 275.597656 -33.183594 " fill-opacity="1" fill-rule="nonzero"/></g></g></g></g><g fill="#000000" fill-opacity="1"><g transform="translate(168.919955, 104.01482)"><g><path d="M 7.554688 -1.351562 L 6.007812 -10 L 4.101562 -9.660156 L 5.066406 -4.265625 L 1.125 -9.128906 L -0.785156 -8.785156 L 0.761719 -0.136719 L 2.671875 -0.476562 L 1.707031 -5.871094 L 5.648438 -1.011719 Z M 7.554688 -1.351562 "/></g></g></g><g fill="#000000" fill-opacity="1"><g transform="translate(186.840304, 101.728736)"><g><path d="M 7.675781 -4.199219 C 7.640625 -2.84375 6.378906 -1.636719 5.023438 -1.675781 C 3.664062 -1.710938 2.472656 -2.984375 2.507812 -4.339844 C 2.546875 -5.695312 3.804688 -6.890625 5.160156 -6.855469 C 6.519531 -6.816406 7.710938 -5.558594 7.675781 -4.199219 Z M 9.613281 -4.136719 C 9.679688 -6.5625 7.640625 -8.714844 5.214844 -8.777344 C 2.785156 -8.84375 0.636719 -6.808594 0.570312 -4.378906 C 0.503906 -1.953125 2.542969 0.199219 4.96875 0.261719 C 7.398438 0.328125 9.546875 -1.707031 9.613281 -4.136719 Z M 9.613281 -4.136719 "/></g></g></g><g fill="#000000" fill-opacity="1"><g transform="translate(206.348733, 103.343925)"><g><path d="M 5.957031 -5.851562 L 8.402344 -5.296875 L 8.792969 -7.011719 L 2.011719 -8.554688 L 1.625 -6.839844 L 4.066406 -6.285156 L 2.507812 0.570312 L 4.398438 1 Z M 5.957031 -5.851562 "/></g></g></g><g fill="#000000" fill-opacity="1"><g transform="translate(222.524891, 107.995823)"><g/></g></g><g fill="#000000" fill-opacity="1"><g transform="translate(234.306463, 113.417025)"><g><path d="M 6.492188 0.0859375 L 4.605469 -1.089844 L 7.203125 -3.15625 Z M 7.503906 4.671875 L 9.121094 -4.671875 L 7.726562 -5.539062 L 0.0546875 0.0351562 L 1.820312 1.132812 L 3.292969 -0.0351562 L 6.136719 1.734375 L 5.738281 3.574219 Z M 7.503906 4.671875 "/></g></g></g><g fill="#000000" fill-opacity="1"><g transform="translate(249.495817, 124.067057)"><g><path d="M 8.089844 -2.082031 L 9.925781 -0.375 L 11.121094 -1.664062 L 6.027344 -6.394531 L 4.832031 -5.109375 L 6.667969 -3.402344 L 1.882812 1.75 L 3.304688 3.070312 Z M 8.089844 -2.082031 "/></g></g></g><g fill="#000000" fill-opacity="1"><g transform="translate(261.164331, 136.126129)"><g><path d="M 0.464844 0.621094 L 3.523438 4.691406 L 4.929688 3.632812 L 3.035156 1.113281 L 8.65625 -3.109375 L 7.492188 -4.660156 Z M 0.464844 0.621094 "/></g></g></g><g fill="#000000" fill-opacity="1"><g transform="translate(270.134653, 149.367184)"><g><path d="M 5.46875 3.503906 L 4.488281 1.507812 L 7.78125 1.125 Z M 3.902344 7.929688 L 10.210938 0.851562 L 9.488281 -0.621094 L 0.0273438 0.0585938 L 0.945312 1.925781 L 2.816406 1.710938 L 4.292969 4.714844 L 2.984375 6.066406 Z M 3.902344 7.929688 "/></g></g></g><g fill="#000000" fill-opacity="1"><g transform="translate(277.418079, 166.410928)"><g><path d="M 2.402344 3.695312 C 2.15625 2.769531 2.402344 1.847656 3.402344 1.527344 L 2.898438 -0.371094 C 0.828125 0.195312 0.359375 2.152344 0.855469 4.023438 C 1.320312 5.761719 2.53125 7.351562 4.53125 6.816406 C 7.761719 5.957031 5.371094 1.339844 6.882812 0.9375 C 7.519531 0.765625 7.964844 1.4375 8.105469 1.960938 C 8.355469 2.898438 8.203125 3.488281 7.34375 3.824219 L 7.824219 5.632812 C 9.742188 5.054688 10.097656 3.277344 9.632812 1.527344 C 9.222656 -0.0195312 7.964844 -1.425781 6.21875 -0.960938 C 3.082031 -0.125 5.449219 4.5 3.800781 4.9375 C 3.039062 5.140625 2.558594 4.28125 2.402344 3.695312 Z M 2.402344 3.695312 "/></g></g></g><g fill="#000000" fill-opacity="1"><g transform="translate(156.261594, 198.673213)"><g><path d="M 39.445312 -39.445312 C 39.445312 -47.160156 40.976562 -49.273438 44.175781 -49.125 L 44.175781 -49.78125 L 33.480469 -49.78125 L 33.480469 -49.125 C 36.679688 -49.273438 38.210938 -47.160156 38.210938 -39.445312 L 38.210938 -15.285156 C 32.3125 -27.582031 21.46875 -39.519531 10.769531 -49.78125 L 0 -49.78125 L 0 -49.125 C 3.128906 -49.273438 4.65625 -47.160156 4.65625 -39.445312 L 4.65625 -10.261719 C 4.65625 -2.546875 3.128906 -0.507812 0 -0.65625 L 0 0 L 10.625 0 L 10.625 -0.65625 C 7.496094 -0.507812 5.96875 -2.546875 5.96875 -10.261719 L 5.96875 -45.632812 C 19.140625 -33.1875 32.386719 -17.832031 37.117188 0 L 39.445312 0 Z M 39.445312 -39.445312 "/></g></g></g><g fill="#000000" fill-opacity="1"><g transform="translate(174.978317, 229.027324)"><g><path d="M 27.949219 -49.78125 L 20.597656 -49.78125 L 4.441406 -3.785156 C 3.710938 -1.746094 2.328125 -0.507812 0 -0.582031 L 0 0 C 3.421875 0 8.734375 0 12.300781 0 L 12.300781 -0.582031 C 9.972656 -0.507812 8.589844 -1.089844 7.859375 -3.203125 C 7.714844 -3.710938 7.496094 -4.292969 7.351562 -4.804688 C 6.914062 -6.039062 6.988281 -7.132812 7.351562 -8.371094 L 8.878906 -12.445312 C 10.480469 -17.03125 16.375 -14.554688 19.214844 -13.535156 C 25.035156 -11.644531 29.183594 -12.738281 31.730469 -18.121094 L 36.679688 -4.074219 C 37.480469 -1.601562 36.316406 -0.507812 33.84375 -0.582031 L 33.84375 0 L 48.542969 0 L 48.542969 -0.582031 C 45.925781 -0.507812 44.6875 -1.820312 43.960938 -4.074219 Z M 31.296875 -19.578125 C 28.601562 -16.667969 24.890625 -18.484375 21.542969 -19.578125 C 16.738281 -21.179688 13.101562 -20.667969 10.554688 -17.394531 L 21.324219 -47.890625 Z M 31.296875 -19.578125 "/></g></g></g></svg>